<?xml version="1.0" encoding="UTF-8"?>
<svg width="24" height="24" version="1.1" viewBox="0 0 24 24" xmlns="http://www.w3.org/2000/svg" xmlns:cc="http://creativecommons.org/ns#" xmlns:dc="http://purl.org/dc/elements/1.1/" xmlns:rdf="http://www.w3.org/1999/02/22-rdf-syntax-ns#">
 <metadata>
  <rdf:RDF>
   <cc:Work rdf:about="">
    <dc:format>image/svg+xml</dc:format>
    <dc:type rdf:resource="http://purl.org/dc/dcmitype/StillImage"/>
    <dc:title/>
   </cc:Work>
  </rdf:RDF>
 </metadata>
 <path d="M0 0h24v24H0V0z" fill="none"/>
 <path d="M12 6.5c3.79 0 7.17 2.13 8.82 5.5-1.65 3.37-5.02 5.5-8.82 5.5S4.83 15.37 3.18 12C4.83 8.63 8.21 6.5 12 6.5m0-2C7 4.5 2.73 7.61 1 12c1.73 4.39 6 7.5 11 7.5s9.27-3.11 11-7.5c-1.73-4.39-6-7.5-11-7.5zm0 5c1.38 0 2.5 1.12 2.5 2.5s-1.12 2.5-2.5 2.5-2.5-1.12-2.5-2.5 1.12-2.5 2.5-2.5m0-2c-2.48 0-4.5 2.02-4.5 4.5s2.02 4.5 4.5 4.5 4.5-2.02 4.5-4.5-2.02-4.5-4.5-4.5z"/>
 <text transform="scale(1.1231 .89036)" x="4.197453" y="21.911612" fill="#f7f7f7" font-family="sans-serif" font-size="22.57px" letter-spacing="0px" stroke="#000000" stroke-width=".56426" word-spacing="0px" style="line-height:1.25" xml:space="preserve"><tspan x="4.197453" y="21.911612" fill="#f7f7f7" stroke="#000000" stroke-width=".56426">F</tspan></text>
</svg>
