<?xml version="1.0" encoding="UTF-8" standalone="no"?>
<svg
   xmlns:dc="http://purl.org/dc/elements/1.1/"
   xmlns:cc="http://creativecommons.org/ns#"
   xmlns:rdf="http://www.w3.org/1999/02/22-rdf-syntax-ns#"
   xmlns:svg="http://www.w3.org/2000/svg"
   xmlns="http://www.w3.org/2000/svg"
   xmlns:sodipodi="http://sodipodi.sourceforge.net/DTD/sodipodi-0.dtd"
   xmlns:inkscape="http://www.inkscape.org/namespaces/inkscape"
   fill="#000000"
   height="48"
   viewBox="0 0 24 24"
   width="48"
   version="1.1"
   id="svg3696"
   sodipodi:docname="ic_local_florist_violet.svg"
   inkscape:version="0.92.0 r15299">
  <metadata
     id="metadata3702">
    <rdf:RDF>
      <cc:Work
         rdf:about="">
        <dc:format>image/svg+xml</dc:format>
        <dc:type
           rdf:resource="http://purl.org/dc/dcmitype/StillImage" />
        <dc:title></dc:title>
      </cc:Work>
    </rdf:RDF>
  </metadata>
  <defs
     id="defs3700" />
  <sodipodi:namedview
     pagecolor="#ffffff"
     bordercolor="#666666"
     borderopacity="1"
     objecttolerance="10"
     gridtolerance="10"
     guidetolerance="10"
     inkscape:pageopacity="0"
     inkscape:pageshadow="2"
     inkscape:window-width="2560"
     inkscape:window-height="1377"
     id="namedview3698"
     showgrid="false"
     inkscape:zoom="19.666667"
     inkscape:cx="20.353051"
     inkscape:cy="23.701772"
     inkscape:window-x="2552"
     inkscape:window-y="-8"
     inkscape:window-maximized="1"
     inkscape:current-layer="svg3696" />
  <path
     d="M0 0h24v24H0z"
     fill="none"
     id="path3692" />
  <path
     d="M12 22c4.97 0 9-4.03 9-9-4.97 0-9 4.03-9 9zM5.6 10.25c0 1.38 1.12 2.5 2.5 2.5.53 0 1.01-.16 1.42-.44l-.02.19c0 1.38 1.12 2.5 2.5 2.5s2.5-1.12 2.5-2.5l-.02-.19c.4.28.89.44 1.42.44 1.38 0 2.5-1.12 2.5-2.5 0-1-.59-1.85-1.43-2.25.84-.4 1.43-1.25 1.43-2.25 0-1.38-1.12-2.5-2.5-2.5-.53 0-1.01.16-1.42.44l.02-.19C14.5 2.12 13.38 1 12 1S9.5 2.12 9.5 3.5l.02.19c-.4-.28-.89-.44-1.42-.44-1.38 0-2.5 1.12-2.5 2.5 0 1 .59 1.85 1.43 2.25-.84.4-1.43 1.25-1.43 2.25zM12 5.5c1.38 0 2.5 1.12 2.5 2.5s-1.12 2.5-2.5 2.5S9.5 9.38 9.5 8s1.12-2.5 2.5-2.5zM3 13c0 4.97 4.03 9 9 9 0-4.97-4.03-9-9-9z"
     id="path3694"
     style="fill:#af00ff;stroke:#000000;stroke-opacity:1;stroke-width:1;stroke-miterlimit:2.79999995;stroke-dasharray:none;fill-opacity:1" />
  <path
     style="stroke-width:0.05084746"
     d="m 23.368305,29.939533 c -0.504938,-0.06717 -1.149521,-0.275752 -1.652996,-0.534892 -1.609777,-0.828557 -2.652931,-2.493824 -2.665222,-4.254699 -0.0021,-0.300625 -0.007,-0.5466 -0.01089,-0.54661 -0.0039,-1e-5 -0.162683,0.09091 -0.352873,0.202055 -1.590672,0.929535 -3.67663,0.867515 -5.204939,-0.154754 -1.036454,-0.693272 -1.770539,-1.702027 -2.089176,-2.870873 -0.15667,-0.574707 -0.191774,-1.572801 -0.0768,-2.18367 0.267495,-1.421251 1.14918,-2.649617 2.44631,-3.408208 l 0.329975,-0.192976 -0.281609,-0.157661 c -1.309175,-0.732951 -2.195384,-1.95528 -2.497067,-3.444148 -0.125531,-0.619521 -0.0783,-1.637024 0.104707,-2.255886 0.581785,-1.9673361 2.290431,-3.3942053 4.284871,-3.5782409 0.576984,-0.053241 1.320884,0.00635 1.832911,0.1468195 0.395141,0.1084053 1.069742,0.4086202 1.369397,0.6094168 L 19.06862,7.4249118 19.03797,7.0966574 c -0.05733,-0.6139717 0.16379,-1.6217982 0.504289,-2.2984291 0.364525,-0.7243729 1.013545,-1.4693828 1.658991,-1.904356 1.494057,-1.0068611 3.423071,-1.1393087 5.014517,-0.3443009 1.640803,0.8196641 2.711469,2.4983809 2.737505,4.2921818 l 0.0083,0.5689488 0.152542,-0.1026005 c 0.287843,-0.1936038 0.968193,-0.4953087 1.358223,-0.6023119 0.708697,-0.1944284 1.735382,-0.2189705 2.429913,-0.058085 1.789758,0.4145912 3.235501,1.8203938 3.719375,3.6166254 0.164555,0.610857 0.16469,1.86085 2.54e-4,2.466102 -0.352258,1.296689 -1.190339,2.381978 -2.373172,3.073186 l -0.328005,0.191675 0.444157,0.269581 c 0.510655,0.309942 1.299632,1.067352 1.614651,1.55005 0.668733,1.024689 0.941817,2.453923 0.695854,3.641878 -0.418481,2.021178 -1.980368,3.554889 -4.010768,3.938415 -0.589924,0.111432 -1.547655,0.07536 -2.126766,-0.08011 -0.422416,-0.1134 -1.139008,-0.425466 -1.394116,-0.607119 -0.08084,-0.05757 -0.162269,-0.104678 -0.180939,-0.104678 -0.01867,0 -0.01922,0.120127 -0.0012,0.266949 0.04412,0.359916 -0.05108,1.071699 -0.21123,1.579407 -0.553673,1.755206 -1.957883,3.038472 -3.739806,3.417699 -0.457185,0.0973 -1.205906,0.1302 -1.642166,0.07217 z m 1.550848,-9.003287 c 1.089489,-0.199927 2.223023,-0.862398 2.927488,-1.71091 0.617305,-0.743531 1.026876,-1.703487 1.140439,-2.672971 0.204283,-1.743957 -0.568019,-3.510866 -2.008605,-4.595381 -1.431933,-1.078 -3.457048,-1.275247 -5.100405,-0.496781 -2.787051,1.320239 -3.745237,4.70606 -2.067203,7.304615 0.301502,0.466897 0.951841,1.116806 1.436709,1.43576 1.054399,0.693599 2.415093,0.966239 3.671577,0.735668 z"
     id="path3704"
     inkscape:connector-curvature="0"
     transform="scale(0.5)" />
  <path
     style="stroke-width:0.02542373;fill:#7800b3;stroke:#000000;stroke-opacity:1;fill-opacity:1"
     d="M 11.681888,14.967518 C 11.13566,14.89992 10.495845,14.56413 10.149614,14.163346 9.7374305,13.686217 9.529343,13.162211 9.523685,12.587132 9.522135,12.429853 9.519285,12.301146 9.517335,12.301115 9.515385,12.301089 9.435371,12.34689 9.339516,12.402903 8.545704,12.86678 7.515699,12.837407 6.743252,12.328864 6.229144,11.990399 5.852316,11.473639 5.6884555,10.882375 5.609216,10.596453 5.609518,9.9114275 5.6890055,9.6243515 5.870284,8.969686 6.3038995,8.4161825 6.8982745,8.080738 L 7.045847,7.997453 6.9231875,7.9303285 C 6.5620505,7.7326975 6.1674975,7.357988 5.967351,7.022564 5.8212895,6.7777805 5.6862415,6.4109935 5.6428915,6.1413415 5.5942515,5.8387925 5.6230965,5.352207 5.706423,5.0695745 5.997499,4.0822783 6.849214,3.3711438 7.8513605,3.2786714 c 0.286347,-0.026422 0.658788,0.00358 0.914124,0.073625 0.1975705,0.054203 0.534871,0.2043101 0.6846985,0.3047084 L 9.532041,3.7118574 9.516716,3.5477302 C 9.4880815,3.2410552 9.5983945,2.7378208 9.7686365,2.3985157 9.9549945,2.0270891 10.281725,1.6531479 10.609264,1.4364239 10.821533,1.2959705 11.140066,1.1529301 11.389516,1.086044 c 0.31075,-0.083323 0.880498,-0.084521 1.204499,-0.00253 1.079562,0.2731824 1.862525,1.2416772 1.880063,2.3255622 0.0024,0.1502982 0.01409,0.2732855 0.02592,0.2733051 0.01182,1.93e-5 0.05459,-0.023527 0.09503,-0.052324 0.04045,-0.028798 0.157816,-0.091301 0.26083,-0.1388966 0.900277,-0.4159531 1.98386,-0.2450059 2.730317,0.4307377 0.31019,0.2808045 0.605849,0.773479 0.718307,1.196959 0.06958,0.2620005 0.09328,0.701055 0.0528,0.977915 -0.108094,0.7392635 -0.544229,1.392005 -1.185507,1.77429 l -0.218267,0.1301155 0.08453,0.04322 c 0.310048,0.1585245 0.742466,0.550905 0.944844,0.8573595 0.421049,0.637583 0.512581,1.4713336 0.243246,2.2156796 -0.222738,0.615566 -0.798468,1.205349 -1.406294,1.440619 -0.349685,0.135352 -0.637302,0.1825 -1.019302,0.167091 -0.221373,-0.0089 -0.397668,-0.0314 -0.533898,-0.06806 -0.211347,-0.05687 -0.569673,-0.21298 -0.697058,-0.303686 -0.04042,-0.02878 -0.07746,-0.05234 -0.08229,-0.05233 -0.0048,3e-6 -0.01011,0.12299 -0.01173,0.273305 -0.01296,1.202483 -0.963701,2.244679 -2.183495,2.393538 -0.256981,0.03136 -0.35411,0.0313 -0.610169,-3.89e-4 z m 0.624018,-4.483442 c 0.38172,-0.03182 0.857413,-0.2255 1.211412,-0.493212 0.490001,-0.3705655 0.820537,-0.906257 0.951148,-1.541501 0.0457,-0.2223035 0.03838,-0.723087 -0.01412,-0.96573 C 14.296985,6.756463 13.8195,6.126898 13.162648,5.780531 11.949847,5.1410045 10.44181,5.603742 9.7878905,6.816067 c -0.212258,0.3935125 -0.288801,0.713724 -0.287108,1.2010925 0.00105,0.298137 0.01184,0.3962805 0.066554,0.6044165 0.22428,0.853212 0.8923395,1.541145 1.7331945,1.784754 0.230993,0.06692 0.586117,0.11404 0.75,0.09951 0.04894,-0.0044 0.163859,-0.01413 0.255374,-0.02177 z"
     id="path3706"
     inkscape:connector-curvature="0" />
</svg>
