<?xml version="1.0" standalone="no"?>
<!DOCTYPE svg PUBLIC "-//W3C//DTD SVG 20010904//EN"
 "http://www.w3.org/TR/2001/REC-SVG-20010904/DTD/svg10.dtd">
<svg version="1.0" xmlns="http://www.w3.org/2000/svg"
 width="1024.000000pt" height="1024.000000pt" viewBox="0 0 1024.000000 1024.000000"
 preserveAspectRatio="xMidYMid meet">
<metadata>
Created by potrace 1.14, written by Peter Selinger 2001-2017
</metadata>
<g transform="translate(0.000000,1024.000000) scale(0.100000,-0.100000)"
fill="#000000" stroke="none">
<path d="M5170 10223 c-14 -9 -28 -21 -31 -26 -4 -5 -21 -12 -40 -16 -24 -5
-45 -21 -77 -61 -24 -30 -59 -71 -78 -91 -19 -19 -34 -42 -34 -51 0 -9 -7 -21
-15 -28 -8 -7 -15 -26 -15 -42 0 -16 -6 -43 -13 -61 -7 -18 -13 -49 -12 -70 1
-21 -2 -40 -6 -42 -3 -3 -3 -25 2 -50 5 -26 8 -49 8 -53 -1 -4 0 -9 1 -12 1
-3 4 -43 5 -90 2 -47 6 -128 10 -180 3 -52 9 -149 12 -215 2 -66 8 -126 12
-135 9 -18 8 -90 -1 -106 -4 -5 -8 -38 -9 -73 -1 -34 -5 -64 -9 -66 -4 -2 -8
-36 -9 -75 -1 -40 -7 -84 -13 -98 -6 -15 -12 -47 -14 -72 -2 -25 -8 -54 -13
-65 -10 -21 -56 -207 -65 -260 -3 -16 -12 -70 -22 -120 -9 -49 -17 -112 -18
-139 -2 -33 -8 -51 -19 -58 -10 -5 -17 -21 -17 -37 0 -15 -3 -31 -7 -35 -5 -4
-9 -12 -9 -17 -1 -5 -3 -10 -4 -11 -1 -2 -4 -16 -6 -33 -9 -74 -17 -111 -27
-124 -6 -7 -13 -27 -14 -45 -6 -66 0 -63 -63 -39 -54 21 -84 52 -67 71 8 10 3
19 -21 39 -18 13 -32 30 -32 36 0 7 -14 20 -31 30 -17 9 -33 26 -36 36 -3 11
-16 22 -29 25 -14 4 -22 10 -19 15 2 5 -2 11 -10 15 -8 3 -15 14 -15 23 0 24
-56 73 -84 73 -12 0 -28 10 -36 22 -8 12 -26 32 -39 45 -13 13 -21 23 -17 23
3 0 0 14 -9 30 -9 17 -20 30 -25 30 -18 0 -80 45 -80 57 0 46 -90 147 -140
158 -16 3 -31 13 -34 21 -3 8 -11 14 -18 14 -17 0 -138 123 -138 140 0 7 -15
26 -32 42 -18 16 -36 32 -41 36 -11 10 -77 111 -77 117 0 10 -63 88 -89 112
-14 12 -28 20 -33 17 -4 -3 -8 4 -8 15 0 12 -6 21 -13 21 -20 0 -57 47 -57 71
0 11 -8 23 -17 26 -10 3 -28 26 -41 53 -14 30 -35 56 -57 68 -18 11 -42 33
-52 49 -20 32 -43 52 -59 53 -7 0 -35 23 -63 50 -28 28 -53 50 -54 50 -2 0
-23 18 -48 40 -24 23 -67 57 -96 76 -29 19 -53 40 -53 45 0 6 -4 8 -9 5 -5 -4
-23 5 -39 19 -16 14 -36 25 -43 25 -7 0 -21 8 -31 17 -25 22 -48 25 -48 7 0
-9 -5 -12 -10 -9 -6 4 -8 11 -4 16 3 6 -13 8 -43 6 -32 -2 -48 -8 -48 -17 0
-7 -15 -18 -33 -24 -19 -7 -38 -19 -43 -29 -6 -9 -18 -17 -27 -17 -10 0 -22
-4 -28 -9 -13 -13 -76 -20 -95 -10 -11 6 -25 2 -40 -10 -13 -9 -32 -20 -41
-24 -11 -4 -19 -22 -23 -54 -4 -26 -14 -53 -22 -60 -8 -6 -15 -17 -17 -25 -1
-7 -4 -17 -8 -23 -3 -5 -9 -25 -13 -42 -3 -18 -11 -33 -16 -33 -6 0 -15 -13
-20 -30 -6 -16 -15 -30 -20 -30 -14 0 -29 -75 -24 -121 8 -66 15 -82 47 -111
16 -16 27 -32 23 -37 -3 -5 -1 -12 5 -16 5 -3 10 -13 10 -22 0 -18 33 -49 61
-58 11 -4 17 -10 15 -14 -8 -12 7 -26 49 -45 22 -10 49 -27 60 -37 11 -10 32
-22 48 -28 15 -6 30 -19 33 -28 13 -38 46 -103 55 -109 6 -3 7 -13 5 -22 -4
-12 12 -33 51 -67 31 -27 66 -60 77 -73 11 -13 40 -35 63 -50 24 -15 43 -30
43 -33 0 -6 54 -80 110 -149 18 -24 36 -77 28 -85 -2 -2 -30 7 -63 21 -33 14
-75 26 -93 28 -18 2 -39 9 -46 15 -8 7 -38 14 -68 16 -29 3 -98 10 -153 16
-105 11 -200 12 -430 6 -77 -2 -216 -5 -310 -7 -99 -1 -178 -7 -190 -14 -11
-6 -74 -14 -140 -18 -136 -8 -153 -10 -250 -26 -38 -7 -103 -14 -143 -16 -40
-2 -78 -8 -85 -15 -6 -6 -20 -11 -32 -11 -11 0 -32 -6 -46 -14 -14 -7 -73 -16
-130 -19 -60 -3 -117 -12 -134 -20 -16 -8 -67 -18 -111 -22 -156 -12 -223 -43
-280 -128 -15 -23 -37 -52 -48 -65 -11 -12 -21 -28 -23 -35 -1 -6 -7 -30 -12
-51 -5 -22 -8 -44 -5 -48 3 -4 0 -8 -6 -8 -6 0 -10 -8 -8 -17 1 -10 -1 -23 -4
-29 -4 -6 -10 -36 -12 -67 -4 -45 -1 -59 14 -78 11 -12 20 -30 20 -39 0 -9 9
-25 20 -35 11 -10 20 -25 20 -33 0 -8 20 -33 44 -56 23 -23 49 -52 55 -65 7
-12 15 -20 18 -17 4 3 32 -18 63 -47 89 -81 120 -107 128 -107 5 0 19 -11 32
-25 34 -37 95 -65 140 -65 27 0 53 -9 84 -31 25 -16 56 -31 68 -32 13 0 25 -4
28 -7 22 -26 169 -120 189 -120 13 0 47 -17 75 -39 28 -21 67 -46 87 -55 20
-10 74 -51 119 -92 45 -41 91 -74 102 -74 10 0 29 -10 41 -21 35 -34 80 -59
106 -59 13 0 43 -16 67 -35 23 -19 47 -35 53 -35 6 0 11 -5 11 -11 0 -5 5 -7
10 -4 13 8 103 -44 150 -85 85 -76 120 -102 132 -97 7 2 24 -4 37 -14 13 -11
35 -19 48 -19 29 0 54 -12 88 -44 15 -14 35 -23 45 -21 10 2 27 -5 39 -16 12
-11 21 -18 21 -15 0 2 37 -18 83 -45 45 -27 87 -49 94 -49 6 0 24 -11 40 -24
26 -22 162 -96 177 -96 4 0 12 -4 19 -10 23 -19 113 -75 142 -89 33 -14 38
-18 104 -56 24 -14 51 -25 60 -25 9 0 34 -12 56 -27 22 -15 49 -29 60 -30 11
-2 24 -8 29 -13 6 -6 19 -10 29 -10 11 0 34 -8 51 -19 17 -10 51 -21 75 -25
61 -9 64 -13 39 -47 -16 -21 -19 -32 -11 -40 6 -6 9 -18 6 -27 -4 -9 -2 -13 4
-9 16 10 58 -40 46 -55 -16 -21 -12 -82 7 -95 21 -15 31 -46 20 -63 -9 -14
-62 -27 -165 -39 -98 -13 -133 -21 -146 -37 -7 -8 -21 -11 -39 -7 -20 4 -38
-1 -59 -16 -17 -12 -41 -23 -53 -24 -13 -1 -35 -14 -50 -29 -15 -16 -38 -28
-50 -28 -13 0 -41 -12 -62 -26 -21 -14 -53 -28 -71 -29 -18 -2 -43 -8 -54 -15
-37 -19 -116 -74 -119 -82 -2 -4 -9 -8 -15 -8 -37 0 -89 -25 -125 -59 -44 -42
-85 -66 -132 -76 -16 -4 -30 -10 -30 -13 0 -4 -20 -20 -45 -37 -24 -16 -50
-43 -56 -60 -7 -16 -19 -37 -26 -47 -8 -9 -13 -25 -12 -35 3 -16 -15 -51 -53
-106 -7 -11 -30 -25 -50 -34 -42 -17 -50 -31 -39 -71 7 -24 5 -32 -20 -51 -18
-15 -31 -36 -34 -59 -10 -58 -25 -88 -49 -101 -27 -15 -55 -61 -49 -79 8 -20
-19 -69 -48 -86 -38 -23 -139 -122 -139 -138 -1 -7 -15 -22 -33 -33 -17 -11
-36 -34 -41 -50 -17 -56 -30 -76 -55 -82 -37 -9 -71 -33 -71 -50 0 -9 -14 -31
-30 -50 -26 -29 -36 -53 -27 -67 1 -2 -5 -12 -14 -22 -23 -26 -49 -80 -43 -87
3 -3 -4 -8 -15 -12 -19 -6 -26 -19 -35 -66 -2 -8 -8 -27 -14 -42 -7 -15 -15
-40 -18 -55 -4 -15 -15 -36 -24 -47 -25 -27 -38 -84 -29 -118 4 -16 5 -38 3
-50 -3 -12 -7 -60 -9 -106 -3 -77 -1 -88 21 -116 13 -18 24 -37 24 -43 0 -7 5
-12 11 -12 5 0 7 -5 4 -10 -4 -6 -2 -16 3 -23 5 -7 9 -28 8 -47 -2 -19 3 -42
9 -50 18 -23 35 -79 28 -95 -3 -9 0 -22 7 -30 7 -9 10 -18 7 -22 -3 -3 0 -18
9 -34 8 -16 12 -29 8 -29 -4 0 -1 -7 6 -14 6 -8 14 -30 16 -48 3 -18 8 -44 10
-58 16 -73 25 -128 26 -155 0 -16 5 -35 10 -42 8 -11 16 -34 31 -98 1 -5 6
-15 10 -22 6 -10 16 -54 32 -145 3 -15 10 -40 17 -55 16 -39 19 -53 25 -96 3
-20 9 -37 13 -37 5 0 12 -9 15 -21 8 -24 40 -59 55 -59 5 0 10 -6 10 -13 0 -7
5 -18 12 -25 7 -7 13 -22 14 -35 10 -98 25 -192 34 -201 5 -5 10 -18 10 -28 0
-10 9 -27 20 -38 11 -11 20 -24 20 -30 0 -5 6 -10 14 -10 17 0 25 -11 31 -41
2 -12 12 -27 21 -34 11 -7 15 -19 11 -29 -5 -12 5 -29 30 -54 21 -20 40 -37
43 -37 13 0 60 -59 60 -75 0 -11 12 -22 29 -28 16 -6 34 -20 41 -31 6 -12 20
-21 31 -21 11 0 33 -13 49 -28 21 -22 36 -28 64 -26 20 1 36 -2 36 -7 0 -5 9
-9 20 -9 11 0 38 -10 60 -21 55 -29 132 -29 191 -1 25 12 52 22 60 22 8 0 19
4 24 8 6 4 28 14 50 21 22 8 53 23 68 34 25 17 60 23 120 18 9 0 17 -8 17 -16
0 -8 6 -15 14 -15 8 0 16 -3 18 -7 8 -18 69 -53 93 -53 24 0 54 -13 85 -36 17
-13 146 -32 243 -35 42 -2 57 -19 57 -68 0 -42 32 -107 75 -154 19 -21 35 -43
35 -50 1 -13 34 -57 44 -57 3 0 20 -15 38 -34 57 -59 114 -83 201 -85 42 -1
88 -6 103 -11 40 -16 79 -12 98 9 10 11 29 22 43 26 24 6 79 42 111 72 17 16
30 16 71 2 28 -10 39 -8 74 9 23 12 56 34 74 51 18 16 47 32 65 36 18 4 49 16
68 26 19 10 64 31 100 45 36 15 79 37 95 49 42 30 73 46 101 51 13 2 41 20 61
39 21 19 46 35 56 35 11 0 36 13 57 30 21 16 41 30 45 30 4 0 24 13 44 29 20
15 45 31 56 35 16 4 209 190 360 345 36 37 157 137 159 132 0 -2 12 2 26 9 14
8 48 15 75 16 78 3 149 28 189 67 20 20 36 41 36 47 0 13 89 100 103 100 4 0
7 9 7 20 0 27 22 70 49 94 13 12 21 31 21 52 0 20 9 44 25 62 14 17 25 35 25
41 0 7 10 31 22 54 12 23 23 58 25 77 2 24 15 46 44 76 l42 42 -5 94 c-6 112
5 214 27 248 14 22 33 130 24 136 -7 4 -9 25 -10 109 -1 31 7 137 15 190 2 17
-1 41 -6 55 -13 31 -17 129 -7 136 5 3 6 24 3 48 -5 30 -2 47 8 57 10 9 15 39
17 83 2 52 7 73 19 83 9 7 13 13 9 13 -4 0 -3 9 3 21 7 13 8 25 2 32 -5 7 -9
24 -8 38 1 20 -5 29 -27 39 -19 8 -25 16 -19 22 6 6 8 16 6 23 -3 7 -1 16 5
19 12 8 5 31 -21 67 -15 23 -16 32 -6 60 10 28 9 34 -9 49 -18 14 -19 19 -7
35 12 16 10 23 -13 54 -15 20 -34 41 -42 47 -8 6 -11 16 -8 21 8 12 -14 23
-44 23 -20 0 -26 15 -9 25 6 4 8 15 5 25 -3 10 -1 21 5 25 17 10 12 20 -20 38
-28 17 -29 20 -16 39 13 18 12 23 -9 46 -20 21 -23 34 -21 79 2 35 -2 60 -12
74 -8 12 -16 41 -18 66 -1 24 -8 50 -14 58 -7 8 -10 21 -7 30 4 8 2 17 -3 20
-12 7 -40 65 -40 82 0 7 -6 13 -13 13 -24 0 -154 136 -151 156 4 22 101 128
125 137 10 3 22 22 29 41 11 33 15 36 53 37 23 0 62 2 86 3 34 2 50 -3 73 -22
17 -15 44 -26 63 -27 18 0 40 -7 48 -13 8 -7 23 -14 33 -17 64 -13 119 -27
128 -33 6 -3 22 -8 36 -10 14 -2 32 -10 40 -17 8 -8 27 -16 42 -19 15 -2 33
-8 40 -12 6 -4 25 -8 42 -10 57 -4 86 -13 116 -34 22 -15 50 -23 97 -26 36 -2
71 -8 77 -13 6 -5 30 -11 54 -14 23 -2 51 -12 61 -21 10 -9 28 -19 41 -21 12
-2 40 -14 62 -25 21 -11 58 -20 81 -20 31 0 49 -7 69 -25 15 -14 36 -25 46
-25 11 0 32 -10 47 -21 14 -12 40 -23 56 -25 16 -2 42 -10 57 -17 15 -8 50
-15 77 -16 28 -1 61 -9 74 -18 13 -8 38 -17 55 -18 17 -2 56 -6 86 -9 30 -4
64 -10 75 -15 29 -13 101 -31 170 -41 33 -6 74 -12 90 -14 33 -6 116 -16 156
-21 28 -3 126 -24 149 -33 19 -7 43 -10 110 -13 30 -1 69 -7 85 -13 17 -7 41
-11 55 -9 14 1 36 -2 50 -7 14 -5 63 -14 110 -20 155 -20 239 -39 290 -65 19
-10 44 -23 55 -29 11 -5 76 -12 145 -14 102 -4 130 -8 152 -23 14 -11 47 -21
73 -24 26 -2 53 -8 59 -13 24 -19 157 -33 290 -31 139 1 169 7 215 41 13 10
30 18 38 18 8 0 20 6 27 13 7 6 43 39 79 71 37 32 67 66 67 75 0 9 7 27 16 39
8 12 12 22 8 22 -4 0 0 6 9 13 14 10 15 21 9 64 -7 43 -16 58 -50 89 -27 24
-47 53 -57 85 -9 27 -20 49 -25 49 -4 0 -15 17 -23 38 -9 21 -46 70 -83 108
-37 38 -75 81 -84 97 -9 15 -41 52 -69 82 -29 30 -50 55 -47 55 4 0 -23 29
-59 64 -36 36 -65 70 -65 76 0 17 -163 186 -249 258 -28 24 -51 49 -51 56 0 7
-28 37 -62 67 -34 30 -70 62 -81 72 -11 9 -23 17 -27 17 -4 0 -41 31 -81 70
-41 38 -82 69 -92 70 -25 0 -77 41 -88 68 -5 12 -16 22 -26 23 -42 2 -58 11
-128 74 -41 36 -84 68 -96 70 -11 2 -28 10 -36 17 -9 7 -21 13 -28 13 -7 0
-38 24 -68 53 -31 28 -62 52 -70 52 -7 0 -27 11 -43 25 -16 14 -33 25 -38 25
-4 0 -35 20 -68 45 -32 24 -74 47 -93 51 -18 3 -41 14 -50 24 -10 11 -30 22
-46 25 -16 4 -31 11 -34 16 -10 16 -148 76 -205 90 -30 7 -62 18 -70 25 -8 6
-23 10 -32 9 -9 -2 -24 6 -34 16 -9 10 -23 19 -30 19 -8 0 -21 12 -30 26 -15
22 -15 27 -3 35 8 5 29 7 48 3 19 -3 90 -7 159 -9 119 -4 126 -3 156 20 23 17
50 25 101 30 123 10 209 11 245 2 47 -11 91 -9 106 6 4 4 31 7 59 7 29 0 68 6
87 14 24 10 62 14 126 11 82 -3 94 -1 122 20 21 15 42 22 68 20 27 -1 45 5 68
24 95 79 97 82 99 117 2 19 9 41 16 50 7 8 14 43 16 77 5 123 9 146 26 164 15
17 15 22 1 48 -8 16 -12 40 -9 53 4 18 1 25 -14 29 -33 9 -46 66 -22 96 13 16
13 19 1 27 -8 6 -11 10 -6 10 5 0 4 6 -2 13 -6 7 -12 30 -14 52 -2 22 -5 42
-9 45 -3 3 -20 26 -39 53 -29 42 -46 52 -72 48 -5 0 -8 3 -8 9 0 5 -7 7 -15 4
-8 -4 -15 -2 -15 4 0 32 -127 43 -247 22 -56 -11 -78 -11 -98 -2 -20 9 -32 9
-53 -1 -32 -16 -186 -21 -213 -7 -12 7 -22 6 -31 -3 -15 -15 -70 -26 -173 -33
-38 -3 -77 -10 -86 -15 -10 -5 -29 -9 -42 -9 -14 0 -42 -7 -63 -16 -24 -10
-54 -14 -81 -11 -23 2 -44 0 -45 -5 -2 -6 -19 -12 -38 -15 -45 -6 -48 -6 -90
4 -75 19 -339 -9 -388 -40 -24 -16 -104 -17 -152 -3 -47 14 -49 14 -71 -10
-12 -13 -25 -22 -27 -19 -3 3 -16 -2 -30 -11 -21 -14 -31 -14 -67 -4 -41 12
-101 10 -123 -4 -6 -4 -65 -8 -130 -10 -106 -3 -121 -5 -140 -24 -23 -23 -26
-24 -84 -24 -22 0 -39 -5 -42 -13 -4 -11 -28 -14 -100 -13 -58 0 -101 -4 -109
-11 -8 -6 -17 -8 -20 -4 -4 3 -16 -2 -27 -12 -26 -23 -25 -9 2 52 12 26 20 52
19 56 -1 4 10 23 24 41 14 18 25 39 25 45 0 7 15 41 34 75 19 34 35 75 37 91
2 17 6 35 9 40 4 6 12 30 19 55 7 25 20 63 30 85 10 22 25 57 35 78 9 21 14
43 11 48 -4 5 1 19 9 31 9 12 16 32 16 44 0 11 3 24 8 28 4 4 8 12 8 17 1 5 2
10 4 12 1 1 4 16 6 32 3 17 7 37 11 45 3 8 7 18 8 23 2 4 3 8 5 10 1 1 4 15 6
32 3 16 9 34 14 40 5 6 12 29 15 50 11 70 12 73 36 133 5 13 9 33 9 45 0 13 4
27 9 33 6 5 12 20 14 34 3 14 16 50 30 80 13 30 32 80 41 110 10 30 22 63 27
74 6 10 21 54 34 96 13 43 30 92 39 109 9 17 13 31 10 31 -4 0 0 8 8 18 9 9
19 40 23 67 4 28 12 59 18 70 13 25 20 117 20 305 0 159 -10 213 -49 259 -14
17 -27 40 -29 53 -3 13 -11 28 -18 33 -19 14 -37 50 -37 74 0 21 -148 172
-210 213 -19 13 -41 37 -49 52 -16 35 -58 74 -87 82 -11 3 -28 18 -38 35 -15
25 -23 29 -58 29 -25 0 -49 7 -61 18 -15 13 -35 17 -96 15 -93 -2 -143 -7
-156 -15 -22 -13 -85 -21 -177 -22 -61 -1 -102 -6 -110 -14 -7 -7 -20 -12 -29
-12 -10 0 -27 -12 -38 -26 -16 -20 -31 -26 -73 -30 -29 -2 -68 -5 -86 -7 -39
-4 -49 7 -24 25 29 20 41 68 25 98 -7 14 -10 32 -8 40 8 25 -78 115 -123 128
-60 18 -163 15 -192 -5z m-2950 -1553 c0 -5 -5 -10 -11 -10 -5 0 -7 5 -4 10 3
6 8 10 11 10 2 0 4 -4 4 -10z"/>
</g>
</svg>
